# xmcd
# 
# Track frame offsets:
#     150
#     24441
#     48013
#     72731
#     101328
#     115795
#     144245
#     161196
#     190149
#     213470
# 
# Disc length: 3151
# 
# Revision: 2
# Processed by: cddbd v1.5.2PL0 Copyright (c) Steve Scherf et al.
# Submitted via: fre:ac v1.0.27
# 
DISCID=870c4d0a
DTITLE=Chris James and Patrick Rynn - Trouble Don't Last
DYEAR=2015
DGENRE=Blues
TTITLE0=Shameless
TTITLE1=Lilly Mae
TTITLE2=Lonesome Whistle Blues
TTITLE3=Going Down to the Ocean
TTITLE4=Trouble Don't Last
TTITLE5=Don't Drive Me Away
TTITLE6=Steady Goin' On
TTITLE7=A Good Idea at the Time
TTITLE8=Hard to Keep a Dollar
TTITLE9=Roll, Stumble, and Slip
EXTD=
EXTT0=
EXTT1=
EXTT2=
EXTT3=
EXTT4=
EXTT5=
EXTT6=
EXTT7=
EXTT8=
EXTT9=
PLAYORDER=
